<mxfile host="app.diagrams.net" modified="2023-04-14T14:01:44.176Z" agent="Mozilla/5.0 (Windows NT 10.0; Win64; x64) AppleWebKit/537.36 (KHTML, like Gecko) Chrome/112.0.0.0 Safari/537.36" version="21.1.4" etag="OiKpi55LCmhlgcc9hodk" type="github">
  <diagram name="PÃ¡gina-1" id="KxY2KeOX5C0a9an5qNvR">
    <mxGraphModel>
      <root>
        <mxCell id="0" />
        <mxCell id="1" parent="0" />
      </root>
    </mxGraphModel>
  </diagram>
</mxfile>
